# xmcd CD database file
#
# Track frame offsets:
#	150
#	14267
#	28965
#	43125
#	58302
#	73807
#	87060
#	100277
#	113150
#	126512
#	139937
#	153005
#	166432
#	179740
#	193337
#	207342
#	220072
#	233287
#	245985
#	258570
#	273235
#	285982
#	298545
#
# Disc length: 4144 seconds
#
# Revision: 0
# Processed by: cddbd v1.5.2PL0 Copyright (c) Steve Scherf et al.
# Submitted via: CDex 1.70beta2
#
DISCID=67102e17
DTITLE=Lonnie Johnson - Complete Recorded Works 1944-47 v.3
DYEAR=1992
DGENRE=Blues
TTITLE0=someday baby
TTITLE1=my love is down
TTITLE2=watch shortly
TTITLE3=mitzt (karl jones, vcl)
TTITLE4=trouble in mind (karl jones, vcl)
TTITLE5=my last love
TTITLE6=keep what you got
TTITLE7=solid blues
TTITLE8=i'm in love with you
TTITLE9=drifting alone blues
TTITLE10=how could you be so mean
TTITLE11=why i love you
TTITLE12=tell me why
TTITLE13=rocks in my bed
TTITLE14=blues for everybody
TTITLE15=in love again
TTITLE16=blues in my soul
TTITLE17=how could you
TTITLE18=love is the answer
TTITLE19=don't blame her (red nelson, vcl)
TTITLE20=your last time out
TTITLE21=you know i do
TTITLE22=blues for lonnie
EXTD=YEAR: 1992
EXTT0=
EXTT1=
EXTT2=
EXTT3=
EXTT4=
EXTT5=
EXTT6=
EXTT7=
EXTT8=
EXTT9=
EXTT10=
EXTT11=
EXTT12=
EXTT13=
EXTT14=
EXTT15=
EXTT16=
EXTT17=
EXTT18=
EXTT19=
EXTT20=
EXTT21=
EXTT22=
PLAYORDER=
